<svg width="296" height="233" xmlns="http://www.w3.org/2000/svg" xmlns:xlink="http://www.w3.org/1999/xlink" xml:space="preserve" overflow="hidden"><defs><clipPath id="clip0"><rect x="0" y="0" width="296" height="233"/></clipPath><clipPath id="clip1"><rect x="0" y="0" width="296" height="231"/></clipPath><clipPath id="clip2"><rect x="-432" y="-192" width="728" height="423"/></clipPath></defs><g clip-path="url(#clip0)"><g clip-path="url(#clip1)"><g clip-path="url(#clip2)"><path d="M448.075 234.458 724.215 234.458 724.215 380.343 448.075 380.343Z" stroke="#000000" stroke-width="0.521018" stroke-dasharray="0.521018 1.04204" fill="none" transform="matrix(1.0004 0 0 1 -431.37 -191.313)"/><path d="M0 41.6814 328.241 41.6814 328.241 192.777 0 192.777Z" stroke="#000000" stroke-width="0.521018" stroke-dasharray="0.521018 0.521018" fill="none" transform="matrix(1.0004 0 0 1 -431.37 -191.313)"/><path d="M41.6814 20.8407 41.6814 74.8338" stroke="#000000" stroke-width="0.521018" stroke-miterlimit="10" fill="none" transform="matrix(1.0004 0 0 1 -431.37 -191.313)"/><path d="M41.6814 77.5691 39.8579 73.922 41.6814 74.8338 43.505 73.922Z" stroke="#000000" stroke-width="0.521018" stroke-miterlimit="10" transform="matrix(1.0004 0 0 1 -431.37 -191.313)"/><path d="M5.21018 0 78.1527 0 78.1527 20.8407 5.21018 20.8407Z" stroke="#6C8EBF" stroke-width="0.521018" fill="#DAE8FC" transform="matrix(1.0004 0 0 1 -431.37 -191.313)"/><text font-family="Arial,Arial_MSFontService,sans-serif" font-weight="700" font-size="14" transform="matrix(0.521225 0 0 0.521018 -426.157 -179)">CFD Data Collection</text><path d="M72.9425 88.573 83.3628 88.573 83.3628 62.5221 90.4643 62.5221" stroke="#000000" stroke-width="0.521018" stroke-miterlimit="10" fill="none" transform="matrix(1.0004 0 0 1 -431.37 -191.313)"/><path d="M93.1997 62.5221 89.5525 64.3457 90.4643 62.5221 89.5525 60.6986Z" stroke="#000000" stroke-width="0.521018" stroke-miterlimit="10" transform="matrix(1.0004 0 0 1 -431.37 -191.313)"/><path d="M41.6814 98.9934 41.6814 132.146" stroke="#000000" stroke-width="0.521018" stroke-miterlimit="10" fill="none" transform="matrix(1.0004 0 0 1 -431.37 -191.313)"/><path d="M41.6814 134.881 39.8579 131.234 41.6814 132.146 43.505 131.234Z" stroke="#000000" stroke-width="0.521018" stroke-miterlimit="10" transform="matrix(1.0004 0 0 1 -431.37 -191.313)"/><path d="M72.9425 88.573 83.3628 88.573 83.3628 114.624 90.4643 114.624" stroke="#000000" stroke-width="0.521018" stroke-miterlimit="10" fill="none" transform="matrix(1.0004 0 0 1 -431.37 -191.313)"/><path d="M93.1997 114.624 89.5525 116.447 90.4643 114.624 89.5525 112.8Z" stroke="#000000" stroke-width="0.521018" stroke-miterlimit="10" transform="matrix(1.0004 0 0 1 -431.37 -191.313)"/><path d="M10.4204 78.1527 72.9425 78.1527 72.9425 98.9934 10.4204 98.9934Z" stroke="#000000" stroke-width="0.521018" fill="#FFFFFF" transform="matrix(1.0004 0 0 1 -431.37 -191.313)"/><text font-family="Arial,Arial_MSFontService,sans-serif" font-weight="400" font-size="14" transform="matrix(0.521225 0 0 0.521018 -422.509 -101)">Data Preprocessing</text><path d="M156.305 62.5221 173.827 62.5221" stroke="#000000" stroke-width="0.521018" stroke-miterlimit="10" stroke-dasharray="1.56305 1.56305" fill="none" transform="matrix(1.0004 0 0 1 -431.37 -191.313)"/><path d="M176.563 62.5221 172.915 64.3457 173.827 62.5221 172.915 60.6986Z" stroke="#000000" stroke-width="0.521018" stroke-miterlimit="10" transform="matrix(1.0004 0 0 1 -431.37 -191.313)"/><path d="M156.305 114.624 173.827 114.624" stroke="#000000" stroke-width="0.521018" stroke-miterlimit="10" stroke-dasharray="1.56305 1.56305" fill="none" transform="matrix(1.0004 0 0 1 -431.37 -191.313)"/><path d="M176.563 114.624 172.915 116.447 173.827 114.624 172.915 112.8Z" stroke="#000000" stroke-width="0.521018" stroke-miterlimit="10" transform="matrix(1.0004 0 0 1 -431.37 -191.313)"/><path d="M93.7832 104.204 156.305 104.204 156.305 125.044 93.7832 125.044Z" stroke="#000000" stroke-width="0.521018" fill="#FFFFFF" transform="matrix(1.0004 0 0 1 -431.37 -191.313)"/><text font-family="Arial,Arial_MSFontService,sans-serif" font-weight="400" font-size="14" transform="matrix(0.521225 0 0 0.521018 -322.173 -75)">Test Data</text><path d="M208.407 72.9425 208.407 100.885" stroke="#000000" stroke-width="0.521018" stroke-miterlimit="10" fill="none" transform="matrix(1.0004 0 0 1 -431.37 -191.313)"/><path d="M208.407 103.62 206.584 99.9729 208.407 100.885 210.231 99.9729Z" stroke="#000000" stroke-width="0.521018" stroke-miterlimit="10" transform="matrix(1.0004 0 0 1 -431.37 -191.313)"/><path d="M177.146 52.1018 239.668 52.1018 239.668 72.9425 177.146 72.9425Z" stroke="#000000" stroke-width="0.521018" fill="#FFFFFF" transform="matrix(1.0004 0 0 1 -431.37 -191.313)"/><text font-family="Arial,Arial_MSFontService,sans-serif" font-weight="400" font-size="14" transform="matrix(0.521225 0 0 0.521018 -242.426 -127)">Train Model</text><path d="M208.407 125.044 208.407 158.197" stroke="#000000" stroke-width="0.521018" stroke-miterlimit="10" fill="none" transform="matrix(1.0004 0 0 1 -431.37 -191.313)"/><path d="M208.407 160.932 206.584 157.285 208.407 158.197 210.231 157.285Z" stroke="#000000" stroke-width="0.521018" stroke-miterlimit="10" transform="matrix(1.0004 0 0 1 -431.37 -191.313)"/><path d="M239.668 114.624 291.77 114.624 291.77 102.312" stroke="#000000" stroke-width="0.521018" stroke-miterlimit="10" fill="none" transform="matrix(1.0004 0 0 1 -431.37 -191.313)"/><path d="M291.77 99.5769 293.594 103.224 291.77 102.312 289.946 103.224Z" stroke="#000000" stroke-width="0.521018" stroke-miterlimit="10" transform="matrix(1.0004 0 0 1 -431.37 -191.313)"/><path d="M177.146 104.204 239.668 104.204 239.668 125.044 177.146 125.044Z" stroke="#000000" stroke-width="0.521018" fill="#FFFFFF" transform="matrix(1.0004 0 0 1 -431.37 -191.313)"/><text font-family="Arial,Arial_MSFontService,sans-serif" font-weight="400" font-size="14" transform="matrix(0.521225 0 0 0.521018 -248.42 -75)">Evaluate Model</text><path d="M208.407 182.356 208.407 207.172" stroke="#000000" stroke-width="0.521018" stroke-miterlimit="10" fill="none" transform="matrix(1.0004 0 0 1 -431.37 -191.313)"/><path d="M208.407 209.908 206.584 206.261 208.407 207.172 210.231 206.261Z" stroke="#000000" stroke-width="0.521018" stroke-miterlimit="10" transform="matrix(1.0004 0 0 1 -431.37 -191.313)"/><path d="M177.146 161.516 239.668 161.516 239.668 182.356 177.146 182.356Z" stroke="#82B366" stroke-width="0.521018" fill="#D5E8D4" transform="matrix(1.0004 0 0 1 -431.37 -191.313)"/><text font-family="Arial,Arial_MSFontService,sans-serif" font-weight="700" font-size="14" transform="matrix(0.521225 0 0 0.521018 -244.51 -18)">Final Model</text><path d="M93.7832 52.1018 156.305 52.1018 156.305 72.9425 93.7832 72.9425Z" stroke="#000000" stroke-width="0.521018" fill="#FFFFFF" transform="matrix(1.0004 0 0 1 -431.37 -191.313)"/><text font-family="Arial,Arial_MSFontService,sans-serif" font-weight="400" font-size="14" transform="matrix(0.521225 0 0 0.521018 -323.737 -127)">Train Data</text><path d="M41.6814 156.305 41.6814 171.936 173.827 171.936" stroke="#000000" stroke-width="0.521018" stroke-miterlimit="10" stroke-dasharray="1.56305 1.56305" fill="none" transform="matrix(1.0004 0 0 1 -431.37 -191.313)"/><path d="M176.563 171.936 172.915 173.759 173.827 171.936 172.915 170.112Z" stroke="#000000" stroke-width="0.521018" stroke-miterlimit="10" transform="matrix(1.0004 0 0 1 -431.37 -191.313)"/><path d="M10.4204 135.465 72.9425 135.465 72.9425 156.305 10.4204 156.305Z" stroke="#000000" stroke-width="0.521018" fill="#FFFFFF" transform="matrix(1.0004 0 0 1 -431.37 -191.313)"/><text font-family="Arial,Arial_MSFontService,sans-serif" font-weight="400" font-size="14" transform="matrix(0.521225 0 0 0.521018 -414.69 -44)">Validation Data</text><path d="M177.146 210.491 239.668 210.491 239.668 231.332 177.146 231.332Z" stroke="#FF9999" stroke-width="0.521018" fill="#FFCCCC" transform="matrix(1.0004 0 0 1 -431.37 -191.313)"/><text font-family="Arial,Arial_MSFontService,sans-serif" font-weight="700" font-size="14" transform="matrix(0.521225 0 0 0.521018 -254.935 31)">Make Predictions</text><path d="M291.77 78.1527 291.77 62.5221 242.987 62.5221" stroke="#000000" stroke-width="0.521018" stroke-miterlimit="10" fill="none" transform="matrix(1.0004 0 0 1 -431.37 -191.313)"/><path d="M240.252 62.5221 243.899 60.6986 242.987 62.5221 243.899 64.3457Z" stroke="#000000" stroke-width="0.521018" stroke-miterlimit="10" transform="matrix(1.0004 0 0 1 -431.37 -191.313)"/><path d="M260.509 78.1527 323.031 78.1527 323.031 98.9934 260.509 98.9934Z" stroke="#000000" stroke-width="0.521018" fill="#FFFFFF" transform="matrix(1.0004 0 0 1 -431.37 -191.313)"/><text font-family="Arial,Arial_MSFontService,sans-serif" font-weight="400" font-size="14" transform="matrix(0.521225 0 0 0.521018 -164.763 -101)">Optimize Model</text><path d="M578.33 218.827 578.33 241.559" stroke="#000000" stroke-width="0.521018" stroke-miterlimit="10" fill="none" transform="matrix(1.0004 0 0 1 -431.37 -191.313)"/><path d="M578.33 244.295 576.506 240.648 578.33 241.559 580.153 240.648Z" stroke="#000000" stroke-width="0.521018" stroke-miterlimit="10" transform="matrix(1.0004 0 0 1 -431.37 -191.313)"/><path d="M534.043 192.777 622.616 192.777 622.616 218.827 534.043 218.827Z" stroke="#36393D" stroke-width="0.521018" fill="#EEEEEE" transform="matrix(1.0004 0 0 1 -431.37 -191.313)"/><text font-family="Arial,Arial_MSFontService,sans-serif" font-weight="700" font-size="14" transform="matrix(0.521225 0 0 0.521018 110.704 16)">CFD Data Collection</text><path d="M578.33 265.719 578.33 283.241" stroke="#000000" stroke-width="0.521018" stroke-miterlimit="10" fill="none" transform="matrix(1.0004 0 0 1 -431.37 -191.313)"/><path d="M578.33 285.976 576.506 282.329 578.33 283.241 580.153 282.329Z" stroke="#000000" stroke-width="0.521018" stroke-miterlimit="10" transform="matrix(1.0004 0 0 1 -431.37 -191.313)"/><path d="M541.859 244.878 614.801 244.878 614.801 265.719 541.859 265.719Z" stroke="#000000" stroke-width="0.521018" fill="#FFFFFF" transform="matrix(1.0004 0 0 1 -431.37 -191.313)"/><text font-family="Arial,Arial_MSFontService,sans-serif" font-weight="400" font-size="14" transform="matrix(0.521225 0 0 0.521018 114.353 66)">Data Preprocessing</text><path d="M541.859 359.502 494.967 359.502 494.967 341.98" stroke="#000000" stroke-width="0.521018" stroke-miterlimit="10" stroke-dasharray="4.16814 4.16814" fill="none" transform="matrix(1.0004 0 0 1 -431.37 -191.313)"/><path d="M494.967 339.245 496.79 342.892 494.967 341.98 493.143 342.892Z" stroke="#000000" stroke-width="0.521018" stroke-miterlimit="10" transform="matrix(1.0004 0 0 1 -431.37 -191.313)"/><path d="M614.801 359.502 647.953 359.502" stroke="#000000" stroke-width="0.521018" stroke-miterlimit="10" fill="none" transform="matrix(1.0004 0 0 1 -431.37 -191.313)"/><path d="M650.689 359.502 647.042 361.326 647.953 359.502 647.042 357.679Z" stroke="#000000" stroke-width="0.521018" stroke-miterlimit="10" transform="matrix(1.0004 0 0 1 -431.37 -191.313)"/><path d="M541.859 349.082 614.801 349.082 614.801 369.923 541.859 369.923Z" stroke="#000000" stroke-width="0.521018" fill="#FFFFFF" transform="matrix(1.0004 0 0 1 -431.37 -191.313)"/><text font-family="Arial,Arial_MSFontService,sans-serif" font-weight="400" font-size="14" transform="matrix(0.521225 0 0 0.521018 118.783 170)">Model Evaluation</text><path d="M682.533 369.923 682.533 392.655" stroke="#000000" stroke-width="0.521018" stroke-miterlimit="10" fill="none" transform="matrix(1.0004 0 0 1 -431.37 -191.313)"/><path d="M682.533 395.39 680.71 391.743 682.533 392.655 684.357 391.743Z" stroke="#000000" stroke-width="0.521018" stroke-miterlimit="10" transform="matrix(1.0004 0 0 1 -431.37 -191.313)"/><path d="M651.272 349.082 713.794 349.082 713.794 369.923 651.272 369.923Z" stroke="#36393D" stroke-width="0.521018" fill="#EEEEEE" transform="matrix(1.0004 0 0 1 -431.37 -191.313)"/><text font-family="Arial,Arial_MSFontService,sans-serif" font-weight="700" font-size="14" transform="matrix(0.521225 0 0 0.521018 229.804 170)">Final Model</text><path d="M638.247 408.999 618.12 408.999" stroke="#000000" stroke-width="0.521018" stroke-miterlimit="10" fill="none" transform="matrix(1.0004 0 0 1 -431.37 -191.313)"/><path d="M615.385 408.999 619.032 407.175 618.12 408.999 619.032 410.823Z" stroke="#000000" stroke-width="0.521018" stroke-miterlimit="10" transform="matrix(1.0004 0 0 1 -431.37 -191.313)"/><path d="M638.247 395.974 726.82 395.974 726.82 422.024 638.247 422.024Z" stroke="#36393D" stroke-width="0.521018" fill="#CDEB8B" transform="matrix(1.0004 0 0 1 -431.37 -191.313)"/><text font-family="Arial,Arial_MSFontService,sans-serif" font-weight="700" font-size="14" transform="matrix(0.521225 0 0 0.521018 208.695 220)">Generating Predictions</text><path d="M494.967 317.821 494.967 296.98 538.54 296.98" stroke="#000000" stroke-width="0.521018" stroke-miterlimit="10" stroke-dasharray="4.16814 4.16814" fill="none" transform="matrix(1.0004 0 0 1 -431.37 -191.313)"/><path d="M541.275 296.98 537.628 298.804 538.54 296.98 537.628 295.157Z" stroke="#000000" stroke-width="0.521018" stroke-miterlimit="10" transform="matrix(1.0004 0 0 1 -431.37 -191.313)"/><path d="M458.496 317.821 531.438 317.821 531.438 338.662 458.496 338.662Z" stroke="#000000" stroke-width="0.521018" fill="#FFFFFF" transform="matrix(1.0004 0 0 1 -431.37 -191.313)"/><text font-family="Arial,Arial_MSFontService,sans-serif" font-weight="400" font-size="14" transform="matrix(0.521225 0 0 0.521018 32.5207 139)">Model Optimization</text><path d="M578.33 307.4 578.33 345.763" stroke="#000000" stroke-width="0.521018" stroke-miterlimit="10" stroke-dasharray="4.16814 4.16814" fill="none" transform="matrix(1.0004 0 0 1 -431.37 -191.313)"/><path d="M578.33 348.498 576.506 344.851 578.33 345.763 580.153 344.851Z" stroke="#000000" stroke-width="0.521018" stroke-miterlimit="10" transform="matrix(1.0004 0 0 1 -431.37 -191.313)"/><path d="M541.859 286.56 614.801 286.56 614.801 307.4 541.859 307.4Z" stroke="#000000" stroke-width="0.521018" fill="#FFFFFF" transform="matrix(1.0004 0 0 1 -431.37 -191.313)"/><text font-family="Arial,Arial_MSFontService,sans-serif" font-weight="400" font-size="14" transform="matrix(0.521225 0 0 0.521018 122.693 107)">Model Training</text><path d="M541.859 398.579 614.801 398.579 614.801 419.419 541.859 419.419Z" stroke="#000000" stroke-width="0.521018" fill="#FFFFFF" transform="matrix(1.0004 0 0 1 -431.37 -191.313)"/><text font-family="Arial,Arial_MSFontService,sans-serif" font-weight="400" font-size="14" transform="matrix(0.521225 0 0 0.521018 120.087 220)">Model Validation</text><text font-family="Arial,Arial_MSFontService,sans-serif" font-weight="400" font-size="10" transform="matrix(0.521225 0 0 0.521018 -106.646 229)">Text is not SVG </text><text font-family="Arial,Arial_MSFontService,sans-serif" font-weight="400" font-size="10" transform="matrix(0.521225 0 0 0.521018 -67.0333 229)">- </text><text font-family="Arial,Arial_MSFontService,sans-serif" font-weight="400" font-size="10" transform="matrix(0.521225 0 0 0.521018 -63.906 229)">cannot display</text></g></g></g></svg>